/* XPM */
static char * cz_xpm[] = {
"12 12 32 1",
" 	c #8282CF",
".	c #FFFFFF",
"+	c #00009C",
"@	c #8181CF",
"#	c #00009D",
"$	c #FDFDFE",
"%	c #02029E",
"&	c #8080CF",
"*	c #FBFCFE",
"=	c #03049F",
"-	c #857EC9",
";	c #FFE7E1",
">	c #FDDFDF",
",	c #00009E",
"'	c #080096",
")	c #60005B",
"!	c #F32625",
"~	c #F22A2A",
"{	c #F12A2A",
"]	c #090097",
"^	c #6A0057",
"/	c #F20000",
"(	c #EF0000",
"_	c #EE0000",
":	c #080098",
"<	c #6C0056",
"[	c #F00000",
"}	c #060099",
"|	c #6F0054",
"1	c #F10000",
"2	c #720052",
"3	c #6A0058",
" ...........",
"+@..........",
"#+@.........",
"###@$.......",
"###%&*......",
"###+=-;>>>>>",
"###,')!~{{{{",
"##,]^/(_____",
"#,:</[______",
",}|1[_______",
"}2([________",
"3_[_________"};
