/* XPM */
static char *gr[] = {
/* columns rows colors chars-per-pixel */
"12 12 64 1 ",
"  c black",
". c #3939FF",
"X c #3E3EFF",
"o c #3F3FFF",
"O c #4040FF",
"+ c #4343FF",
"@ c #4848FF",
"# c #5050FF",
"$ c #5252FF",
"% c #5454FF",
"& c #5555FF",
"* c #7373FF",
"= c #7575FF",
"- c #7B7BFF",
"; c #7E7EFF",
": c #8484FF",
"> c #8585FF",
", c #8888FF",
"< c #8A8AFF",
"1 c #8B8BFF",
"2 c #8C8CFF",
"3 c #8D8DFF",
"4 c #8F8FFF",
"5 c #A0A0FF",
"6 c #A3A3FF",
"7 c #A4A4FF",
"8 c #A5A5FF",
"9 c #A6A6FF",
"0 c #A7A7FF",
"q c #A8A8FF",
"w c #A9A9FF",
"e c #B0B0FF",
"r c #B8B8FF",
"t c #BABAFF",
"y c #BCBCFF",
"u c #C2C2FF",
"i c #C5C5FF",
"p c #C6C6FF",
"a c #C8C8FF",
"s c #CFCFFF",
"d c #D3D3FF",
"f c #D5D5FF",
"g c #D7D7FF",
"h c #D8D8FF",
"j c #E4E4FF",
"k c #EAEAFF",
"l c black",
"z c black",
"x c black",
"c c black",
"v c black",
"b c black",
"n c black",
"m c black",
"M c black",
"N c black",
"B c black",
"V c black",
"C c black",
"Z c black",
"A c black",
"S c black",
"D c black",
"F c black",
/* pixels */
"            ",
" X,6O#%%%%% ",
" @4q#yhgggh ",
" djkd,*==== ",
" ;eu:riiiii ",
" .:6X-4,44, ",
" 7agq777777 ",
" qqqqqqqqqq ",
" 4444444,44 ",
" yyyyyyyyyy ",
" +OO++++++O ",
"            "
};
