/* XPM */
static char * us_xpm[] = {
"12 12 120 2",
"  	c None",
". 	c #9797CD",
"+ 	c #A0A0D5",
"@ 	c #A8A8DA",
"# 	c #AAAADB",
"$ 	c #A7A7DA",
"% 	c #A2A2D8",
"& 	c #B992BA",
"* 	c #FF9A9A",
"= 	c #FF9999",
"- 	c #FE9696",
"; 	c #FC9090",
"> 	c #F59191",
", 	c #7777BF",
"' 	c #7171C2",
") 	c #7070C3",
"! 	c #6F6FC3",
"~ 	c #7272C4",
"{ 	c #7777C6",
"] 	c #9C87C1",
"^ 	c #FFCBCB",
"/ 	c #FCC9C9",
"( 	c #F3C4C4",
"_ 	c #7171BE",
": 	c #6969BF",
"< 	c #6666BF",
"[ 	c #6969C0",
"} 	c #7171C3",
"| 	c #9868A4",
"1 	c #FF8787",
"2 	c #FD8686",
"3 	c #F38686",
"4 	c #6E6EBC",
"5 	c #7B7BC7",
"6 	c #8383CB",
"7 	c #7C7CC8",
"8 	c #906EAF",
"9 	c #FFABAB",
"0 	c #FDA9A9",
"a 	c #F2A4A4",
"b 	c #6363B6",
"c 	c #4F4FB4",
"d 	c #4848B2",
"e 	c #5050B5",
"f 	c #6060BC",
"g 	c #8E498B",
"h 	c #FF5151",
"i 	c #FC5050",
"j 	c #F15252",
"k 	c #6868B5",
"l 	c #7070BF",
"m 	c #7676C3",
"n 	c #7272C1",
"o 	c #6D6DBF",
"p 	c #7F68B1",
"q 	c #FCC2C2",
"r 	c #FBC1C1",
"s 	c #F8BFBF",
"t 	c #EAB8B8",
"u 	c #777DBE",
"v 	c #7880C6",
"w 	c #7A82CA",
"x 	c #7B83CB",
"y 	c #7B83CC",
"z 	c #7D85CC",
"A 	c #A16EA0",
"B 	c #F86A6A",
"C 	c #F76969",
"D 	c #F26868",
"E 	c #E36666",
"F 	c #DA898E",
"G 	c #E88F93",
"H 	c #EE9297",
"I 	c #F29499",
"J 	c #F39499",
"K 	c #F69597",
"L 	c #FB9595",
"M 	c #F89494",
"N 	c #F29090",
"O 	c #E28A8A",
"P 	c #DE2E2E",
"Q 	c #ED2A2A",
"R 	c #F52B2B",
"S 	c #F92D2D",
"T 	c #FB2D2D",
"U 	c #FA2D2D",
"V 	c #F82C2C",
"W 	c #F12B2B",
"X 	c #E02F2F",
"Y 	c #DBA1A1",
"Z 	c #E9A8A8",
"` 	c #F3AFAF",
" .	c #F9B3B3",
"..	c #FCB5B5",
"+.	c #FCB6B6",
"@.	c #FBB5B5",
"#.	c #F8B3B3",
"$.	c #EFADAD",
"%.	c #DFA3A3",
"&.	c #DA4B4B",
"*.	c #E74848",
"=.	c #F14B4B",
"-.	c #F94E4E",
";.	c #FE4F4F",
">.	c #FE5050",
",.	c #FC4F4F",
"'.	c #F74E4E",
").	c #ED4A4A",
"!.	c #DD4C4C",
"~.	c #D47F7F",
"{.	c #DE8989",
"].	c #E79191",
"^.	c #F09898",
"/.	c #F59C9C",
"(.	c #F8A0A0",
"_.	c #F79D9D",
":.	c #F49B9B",
"<.	c #EE9696",
"[.	c #E48C8C",
"}.	c #D68080",
". + @ # $ % & * = - ; > ",
", ' ) ! ~ { ] ^ ^ ^ / ( ",
"_ : < < [ } | 1 1 1 2 3 ",
"4 5 6 6 7 } 8 9 9 9 0 a ",
"b c d d e f g h h h i j ",
"k l m m n o p q q r s t ",
"u v w x y z A B B C D E ",
"F G H I I J K L L M N O ",
"P Q R S T T T T U V W X ",
"Y Z `  ...+.+.+.@.#.$.%.",
"&.*.=.-.i ;.>.>.,.'.).!.",
"~.{.].^./.(.(._.:.<.[.}."};
